<?xml version="1.0" standalone="no"?>
<!DOCTYPE svg PUBLIC "-//W3C//DTD SVG 20010904//EN"
 "http://www.w3.org/TR/2001/REC-SVG-20010904/DTD/svg10.dtd">
<svg version="1.0" xmlns="http://www.w3.org/2000/svg"
 width="286.000000pt" height="302.000000pt" viewBox="0 0 286.000000 302.000000"
 preserveAspectRatio="xMidYMid meet">

<g transform="translate(0.000000,302.000000) scale(0.100000,-0.100000)"
fill="#000000" stroke="none">
<path d="M720 2685 c-250 -46 -460 -259 -505 -510 -21 -115 -21 -1393 -1
-1507 43 -239 226 -437 466 -505 60 -17 117 -18 795 -18 807 0 780 -2 920 65
170 82 289 225 342 411 17 59 18 118 18 799 0 670 -2 741 -18 798 -60 221
-218 382 -447 458 -51 17 -106 19 -775 21 -575 1 -735 -1 -795 -12z m778 -771
c13 -9 27 -27 33 -40 12 -34 7 -44 -141 -299 -32 -55 -70 -122 -85 -150 -33
-62 -59 -85 -94 -85 -29 0 -65 31 -75 65 -6 20 1 33 184 357 95 167 123 191
178 152z m836 -9 c15 -13 26 -35 26 -49 0 -14 -52 -117 -117 -228 -64 -112
-122 -215 -130 -230 -18 -35 -50 -58 -81 -58 -32 0 -72 43 -71 77 0 40 258
484 290 500 35 18 53 16 83 -12z m-1354 -335 c36 -36 28 -63 -70 -231 -8 -14
-50 -87 -93 -162 -98 -171 -129 -195 -191 -146 -42 33 -34 63 54 214 44 76 80
139 80 140 0 4 83 147 106 183 19 30 85 31 114 2z m830 -12 c24 -40 22 -49
-41 -156 -27 -46 -49 -86 -49 -88 0 -3 -16 -30 -35 -60 -19 -30 -35 -56 -35
-58 0 -2 -23 -42 -50 -89 -41 -70 -56 -87 -80 -92 -44 -10 -70 3 -86 40 -17
41 -16 43 63 178 35 60 63 110 63 112 0 6 95 165 124 208 23 32 31 37 66 37
35 0 43 -4 60 -32z"/>
</g>
</svg>
