<?xml version="1.0" standalone="no"?>
<!DOCTYPE svg PUBLIC "-//W3C//DTD SVG 20010904//EN"
 "http://www.w3.org/TR/2001/REC-SVG-20010904/DTD/svg10.dtd">
<svg version="1.0" xmlns="http://www.w3.org/2000/svg"
 width="300.000000pt" height="300.000000pt" viewBox="0 0 300.000000 300.000000"
 preserveAspectRatio="xMidYMid meet">

<g transform="translate(0.000000,300.000000) scale(0.100000,-0.100000)"
fill="#000000" stroke="none">
<path d="M0 1500 l0 -1500 1500 0 1500 0 0 1500 0 1500 -1500 0 -1500 0 0
-1500z m700 831 c0 -28 -2 -29 -62 -36 -83 -10 -113 -38 -104 -98 4 -23 61
-179 127 -347 66 -168 146 -369 176 -448 31 -79 59 -139 64 -135 8 9 318 774
343 846 9 26 16 68 16 92 0 59 -23 82 -90 91 -47 6 -50 8 -50 35 l0 29 490 0
490 0 0 -29 c0 -27 -2 -28 -56 -34 -100 -10 -124 -46 -86 -125 21 -44 275
-478 295 -506 13 -18 23 -4 129 175 191 321 221 395 180 432 -11 10 -39 21
-61 24 -37 5 -41 8 -41 34 l0 29 205 0 205 0 0 -28 c0 -25 -5 -29 -47 -40 -83
-23 -115 -64 -356 -472 l-168 -284 3 -196 c3 -165 6 -200 21 -228 21 -39 69
-62 127 -62 39 0 40 -1 40 -35 l0 -35 -290 0 -290 0 0 35 c0 35 0 35 45 35 63
0 110 22 132 62 15 28 18 62 21 225 l4 192 -194 331 c-106 182 -208 349 -226
370 -18 22 -51 46 -77 56 -40 15 -53 15 -101 5 -72 -16 -115 -55 -149 -134
-15 -34 -131 -316 -258 -627 -230 -561 -232 -565 -262 -568 l-30 -3 -224 543
c-123 299 -240 576 -259 617 -54 117 -95 153 -194 175 -23 5 -28 12 -28 36 l0
30 295 0 295 0 0 -29z"/>
</g>
</svg>
