<?xml version="1.0" encoding="UTF-8"?>
<!DOCTYPE svg PUBLIC "-//W3C//DTD SVG 1.1//EN" "http://www.w3.org/Graphics/SVG/1.1/DTD/svg11.dtd">
<svg xmlns="http://www.w3.org/2000/svg" version="1.1" width="300px" height="300px" style="shape-rendering:geometricPrecision; text-rendering:geometricPrecision; image-rendering:optimizeQuality; fill-rule:evenodd; clip-rule:evenodd" xmlns:xlink="http://www.w3.org/1999/xlink">
<g><path style="opacity:1" fill="#1e1e1e" d="M -0.5,-0.5 C 99.5,-0.5 199.5,-0.5 299.5,-0.5C 299.5,99.5 299.5,199.5 299.5,299.5C 199.5,299.5 99.5,299.5 -0.5,299.5C -0.5,199.5 -0.5,99.5 -0.5,-0.5 Z"/></g>
<g><path style="opacity:1" fill="#7a7e7f" d="M 10.5,63.5 C 29.9929,62.5029 49.6596,62.1696 69.5,62.5C 69.5,65.1667 69.5,67.8333 69.5,70.5C 66.8333,70.5 64.1667,70.5 61.5,70.5C 63.6074,69.5318 65.9407,69.1984 68.5,69.5C 68.5,67.5 68.5,65.5 68.5,63.5C 49.1667,63.5 29.8333,63.5 10.5,63.5 Z"/></g>
<g><path style="opacity:1" fill="#777b7c" d="M 209.5,69.5 C 209.5,67.5 209.5,65.5 209.5,63.5C 177.167,63.5 144.833,63.5 112.5,63.5C 112.5,65.5 112.5,67.5 112.5,69.5C 114.415,69.2155 116.081,69.5489 117.5,70.5C 115.5,70.5 113.5,70.5 111.5,70.5C 111.5,67.8333 111.5,65.1667 111.5,62.5C 144.5,62.5 177.5,62.5 210.5,62.5C 210.802,65.0593 210.468,67.3926 209.5,69.5 Z"/></g>
<g><path style="opacity:1" fill="#b1b8b9" d="M 10.5,63.5 C 29.8333,63.5 49.1667,63.5 68.5,63.5C 68.5,65.5 68.5,67.5 68.5,69.5C 65.9407,69.1984 63.6074,69.5318 61.5,70.5C 54.8576,70.64 52.0242,73.9734 53,80.5C 64.8038,111.579 76.8038,142.579 89,173.5C 101.578,144.107 113.578,114.441 125,84.5C 125.854,80.3749 125.52,76.3749 124,72.5C 122.103,70.9837 119.936,70.317 117.5,70.5C 116.081,69.5489 114.415,69.2155 112.5,69.5C 112.5,67.5 112.5,65.5 112.5,63.5C 144.833,63.5 177.167,63.5 209.5,63.5C 209.5,65.5 209.5,67.5 209.5,69.5C 203.767,68.8911 198.6,70.2245 194,73.5C 193.333,75.5 193.333,77.5 194,79.5C 204.268,98.0925 214.934,116.426 226,134.5C 234,121.167 242,107.833 250,94.5C 252.536,89.2152 254.869,83.8818 257,78.5C 258.041,75.3637 257.207,72.8637 254.5,71C 251.607,69.8512 248.607,69.3512 245.5,69.5C 245.5,67.1667 245.5,64.8333 245.5,62.5C 259.167,62.5 272.833,62.5 286.5,62.5C 286.5,64.8333 286.5,67.1667 286.5,69.5C 283.206,69.259 280.206,70.0924 277.5,72C 274.667,74.8333 271.833,77.6667 269,80.5C 255.748,102.001 242.748,123.668 230,145.5C 229.333,157.833 229.333,170.167 230,182.5C 232.48,192.67 238.98,196.67 249.5,194.5C 249.5,196.833 249.5,199.167 249.5,201.5C 229.833,201.5 210.167,201.5 190.5,201.5C 190.5,199.167 190.5,196.833 190.5,194.5C 202.458,196.296 208.958,191.296 210,179.5C 210.667,168.167 210.667,156.833 210,145.5C 197.414,124.664 185.081,103.664 173,82.5C 166.964,70.7302 157.798,67.2302 145.5,72C 142.333,73.8333 139.833,76.3333 138,79.5C 121.333,120.167 104.667,160.833 88,201.5C 85.8209,203.637 83.3209,203.971 80.5,202.5C 63.6443,161.779 46.4776,121.112 29,80.5C 24.7581,73.6287 18.5914,70.2954 10.5,70.5C 10.5,68.1667 10.5,65.8333 10.5,63.5 Z"/></g>
</svg>
