<?xml version="1.0" standalone="no"?>
<!DOCTYPE svg PUBLIC "-//W3C//DTD SVG 20010904//EN"
 "http://www.w3.org/TR/2001/REC-SVG-20010904/DTD/svg10.dtd">
<svg version="1.0" xmlns="http://www.w3.org/2000/svg"
 width="300.000000pt" height="300.000000pt" viewBox="0 0 300.000000 300.000000"
 preserveAspectRatio="xMidYMid meet">

<g transform="translate(0.000000,300.000000) scale(0.100000,-0.100000)"
fill="#000000" stroke="none">
<path d="M0 1500 l0 -1500 1500 0 1500 0 0 1500 0 1500 -1500 0 -1500 0 0
-1500z m690 530 l0 -530 -25 0 -25 0 0 530 0 530 25 0 25 0 0 -530z m320 0 l0
-530 -80 0 -80 0 0 530 0 530 80 0 80 0 0 -530z m110 0 l0 -530 -25 0 -25 0 0
530 0 530 25 0 25 0 0 -530z m110 0 l0 -530 -25 0 -25 0 0 530 0 530 25 0 25
0 0 -530z m210 0 l0 -530 -75 0 -75 0 0 530 0 530 75 0 75 0 0 -530z m220 0
l0 -530 -80 0 -80 0 0 530 0 530 80 0 80 0 0 -530z m220 0 l0 -530 -25 0 -25
0 0 530 0 530 25 0 25 0 0 -530z m210 0 l0 -530 -80 0 -80 0 0 530 0 530 80 0
80 0 0 -530z m110 0 l0 -530 -25 0 -25 0 0 530 0 530 25 0 25 0 0 -530z m110
0 l0 -530 -25 0 -25 0 0 530 0 530 25 0 25 0 0 -530z m-1296 -837 c27 -82 52
-151 55 -156 4 -4 29 62 56 148 44 139 51 155 71 155 22 0 20 -6 -45 -202 -41
-123 -73 -203 -81 -203 -7 0 -38 73 -75 180 -86 248 -80 225 -53 225 21 0 28
-13 72 -147z m869 52 c27 -52 52 -95 56 -95 5 0 26 42 49 93 34 78 44 92 66
95 25 3 24 1 -34 -123 -58 -121 -60 -129 -60 -206 0 -78 0 -79 -25 -79 -25 0
-25 1 -25 86 0 85 0 86 -60 198 -33 62 -60 116 -60 119 0 4 10 7 23 7 18 0 31
-18 70 -95z"/>
</g>
</svg>
